<svg width="67" height="24" viewBox="0 0 67 24" fill="none" xmlns="http://www.w3.org/2000/svg">
<path fill-rule="evenodd" clip-rule="evenodd" d="M64.4524 3.12176V10.2399L57.7453 3.12176H56.538V14.9143H58.9833V7.61252L65.8706 15.0722H66.8989V3.12176H64.4524ZM47.4934 0.987793C43.3284 0.987793 39.9405 4.373 39.9405 8.5332C39.9405 12.6934 43.3284 16.0786 47.4934 16.0786C47.7042 16.0786 47.915 16.0676 48.1222 16.0529L48.1406 13.1305C47.9297 13.1586 47.7116 13.1758 47.4946 13.1758C44.9304 13.1758 42.8467 11.092 42.8467 8.5332C42.8467 5.97318 44.9304 3.8894 47.4946 3.8894C50.0564 3.8894 52.1413 5.97318 52.1413 8.5332C52.1413 10.0979 51.3593 11.4875 50.1679 12.3261L52.1634 14.4576C53.9186 13.0754 55.0475 10.9341 55.0475 8.5332C55.045 4.373 51.6571 0.987793 47.4934 0.987793Z" fill="#D0DAE7"/>
<path fill-rule="evenodd" clip-rule="evenodd" d="M10.2398 2.97369L9.31435 4.82485C8.81426 4.32411 8.00896 4.0768 6.89846 4.0768C5.84557 4.0768 4.98144 4.51755 4.30729 5.39538C3.63315 6.2732 3.29853 7.38365 3.29853 8.72917C3.29853 10.0722 3.60864 11.1386 4.23498 11.9283C4.85887 12.7167 5.69358 13.1134 6.73667 13.1134C7.93051 13.1134 8.86083 12.6947 9.5362 11.856L10.5817 13.6668C9.66858 14.6279 8.32765 15.1115 6.56261 15.1115C4.79758 15.1115 3.426 14.5324 2.45033 13.3742C1.47344 12.2135 0.984375 10.6354 0.984375 8.63367C0.984375 6.77027 1.52614 5.21418 2.60968 3.96171C3.69321 2.70924 5.07704 2.08362 6.76731 2.08362C8.21365 2.0824 9.37073 2.3799 10.2398 2.97369Z" fill="white"/>
<path fill-rule="evenodd" clip-rule="evenodd" d="M12.6214 2.25762L14.7774 1.74097V12.0962C14.7774 13.2299 15.1194 13.9069 15.8034 14.1248C15.4675 14.7468 14.8976 15.0553 14.091 15.0553C13.1117 15.0553 12.6202 14.382 12.6202 13.0291V2.25762H12.6214Z" fill="white"/>
<path fill-rule="evenodd" clip-rule="evenodd" d="M18.0363 14.8985V7.44002H16.8535V5.68069H20.2193V14.8985H18.0363ZM19.1554 2.10693C19.4974 2.10693 19.794 2.22936 20.0379 2.473C20.2818 2.71541 20.4044 3.01047 20.4044 3.35328C20.4044 3.69731 20.2806 3.99237 20.0379 4.23723C19.794 4.48087 19.4986 4.60207 19.1554 4.60207C18.8098 4.60207 18.5156 4.48087 18.2717 4.23723C18.0278 3.99359 17.9052 3.69853 17.9052 3.35328C17.9052 3.01047 18.0278 2.71541 18.2717 2.473C18.5144 2.23059 18.8098 2.10693 19.1554 2.10693Z" fill="white"/>
<path fill-rule="evenodd" clip-rule="evenodd" d="M29.9557 6.41523L29.0339 8.01908C28.5289 7.54527 27.8499 7.30898 27.0004 7.30898C26.1829 7.30898 25.5394 7.57955 25.065 8.12192C24.5895 8.66306 24.3529 9.41356 24.3529 10.371C24.3529 12.3042 25.2771 13.2701 27.1255 13.2701C27.9246 13.2701 28.6294 12.9996 29.2398 12.4572L30.0341 14.1651C29.4053 14.5532 28.8611 14.8005 28.3904 14.9046C27.9222 15.0074 27.3682 15.0576 26.7308 15.0576C25.3053 15.0576 24.1813 14.6438 23.3552 13.8186C22.5303 12.991 22.1172 11.8438 22.1172 10.3722C22.1172 8.92629 22.5695 7.75585 23.4692 6.86455C24.3725 5.97081 25.6007 5.52516 27.1549 5.52516C28.2311 5.52271 29.1614 5.82022 29.9557 6.41523Z" fill="white"/>
<path fill-rule="evenodd" clip-rule="evenodd" d="M37.6714 14.8986L34.9467 10.7249L33.9109 11.817V14.8986H31.7549V2.25762L33.9109 1.74097V9.21782L36.9862 5.68079H39.5909L36.4641 9.17374L40.2209 14.8986H37.6714Z" fill="white"/>
<path d="M47.4931 10.9279C48.8173 10.9279 49.8907 9.85576 49.8907 8.53317C49.8907 7.21059 48.8173 6.13843 47.4931 6.13843C46.169 6.13843 45.0956 7.21059 45.0956 8.53317C45.0956 9.85576 46.169 10.9279 47.4931 10.9279Z" fill="white"/>
<path fill-rule="evenodd" clip-rule="evenodd" d="M49.0225 12.511L55.7382 19.6842L52.3197 19.4993L53.9351 23.4416L52.691 23.9999L51.1393 19.8397L48.96 21.921L49.0225 12.511Z" fill="white"/>
</svg>
