<svg width="17" height="17" viewBox="0 0 17 17" fill="none" xmlns="http://www.w3.org/2000/svg">
<path d="M14.2389 10.8153C13.4189 10.8153 12.6256 10.682 11.8856 10.442C11.6523 10.362 11.3923 10.422 11.2123 10.602L10.1656 11.9153C8.27893 11.0153 6.51226 9.31535 5.57226 7.36201L6.87226 6.25535C7.05226 6.06868 7.10559 5.80868 7.03226 5.57535C6.78559 4.83535 6.65893 4.04201 6.65893 3.22201C6.65893 2.86201 6.35893 2.56201 5.99893 2.56201H3.69226C3.33226 2.56201 2.89893 2.72201 2.89893 3.22201C2.89893 9.41535 8.05226 14.562 14.2389 14.562C14.7123 14.562 14.8989 14.142 14.8989 13.7753V11.4753C14.8989 11.1153 14.5989 10.8153 14.2389 10.8153Z" fill="white"/>
</svg>
